<svg xmlns="http://www.w3.org/2000/svg" xmlns:xlink="http://www.w3.org/1999/xlink" width="1024" zoomAndPan="magnify" viewBox="0 0 768 767.999994" height="1024" preserveAspectRatio="xMidYMid meet" version="1.0"><defs><clipPath id="894c3f898b"><path d="M 47.386719 167 L 720.886719 167 L 720.886719 657 L 47.386719 657 Z M 47.386719 167 " clip-rule="nonzero"/></clipPath></defs><g clip-path="url(#894c3f898b)"><path fill="#ffffff" d="M 660.015625 272.492188 L 541.597656 272.492188 L 500.195312 195.949219 C 499.050781 193.832031 497.769531 191.804688 496.351562 189.859375 C 494.933594 187.917969 493.394531 186.078125 491.730469 184.339844 C 490.066406 182.605469 488.292969 180.988281 486.414062 179.488281 C 484.53125 177.988281 482.5625 176.621094 480.496094 175.386719 C 478.433594 174.148438 476.296875 173.058594 474.085938 172.109375 C 471.878906 171.160156 469.613281 170.363281 467.296875 169.71875 C 464.980469 169.070312 462.632812 168.582031 460.25 168.25 C 457.867188 167.921875 455.472656 167.75 453.070312 167.738281 L 315.597656 167.738281 C 313.152344 167.742188 310.71875 167.914062 308.292969 168.25 C 305.871094 168.585938 303.480469 169.082031 301.125 169.746094 C 298.773438 170.40625 296.472656 171.222656 294.230469 172.199219 C 291.984375 173.171875 289.816406 174.292969 287.726562 175.566406 C 285.636719 176.835938 283.640625 178.238281 281.742188 179.78125 C 279.84375 181.324219 278.058594 182.988281 276.382812 184.773438 C 274.710938 186.554688 273.167969 188.445312 271.753906 190.441406 C 270.339844 192.4375 269.066406 194.519531 267.933594 196.6875 L 228.484375 272.492188 L 202.226562 272.492188 C 202.183594 271.410156 202.039062 270.34375 201.789062 269.292969 C 201.542969 268.238281 201.195312 267.21875 200.753906 266.234375 C 200.308594 265.246094 199.777344 264.3125 199.152344 263.425781 C 198.527344 262.542969 197.828125 261.726562 197.046875 260.976562 C 196.265625 260.226562 195.421875 259.558594 194.511719 258.972656 C 193.605469 258.386719 192.648438 257.890625 191.644531 257.488281 C 190.640625 257.082031 189.609375 256.777344 188.546875 256.574219 C 187.484375 256.371094 186.410156 256.265625 185.328125 256.269531 L 176.242188 256.269531 C 175.871094 255.339844 175.371094 254.488281 174.742188 253.710938 C 174.117188 252.933594 173.386719 252.265625 172.558594 251.707031 C 171.730469 251.148438 170.839844 250.726562 169.882812 250.4375 C 168.925781 250.144531 167.949219 250.003906 166.949219 250.007812 L 142.242188 250.007812 C 141.246094 250.007812 140.269531 250.152344 139.316406 250.445312 C 138.363281 250.738281 137.46875 251.160156 136.644531 251.71875 C 135.816406 252.277344 135.085938 252.945312 134.457031 253.71875 C 133.832031 254.492188 133.328125 255.34375 132.953125 256.269531 L 124.132812 256.269531 C 123.054688 256.265625 121.984375 256.371094 120.921875 256.574219 C 119.863281 256.78125 118.832031 257.085938 117.832031 257.488281 C 116.828125 257.894531 115.875 258.386719 114.96875 258.976562 C 114.0625 259.5625 113.21875 260.230469 112.441406 260.980469 C 111.664062 261.730469 110.964844 262.546875 110.34375 263.433594 C 109.726562 264.316406 109.195312 265.25 108.753906 266.238281 C 108.3125 267.222656 107.972656 268.242188 107.726562 269.296875 C 107.484375 270.347656 107.34375 271.414062 107.304688 272.492188 C 105.332031 272.515625 103.367188 272.632812 101.410156 272.847656 C 99.453125 273.058594 97.507812 273.367188 95.578125 273.769531 C 93.648438 274.175781 91.746094 274.671875 89.867188 275.257812 C 87.984375 275.847656 86.136719 276.527344 84.324219 277.296875 C 82.507812 278.066406 80.738281 278.921875 79.007812 279.863281 C 77.277344 280.804688 75.59375 281.828125 73.964844 282.9375 C 72.335938 284.042969 70.761719 285.226562 69.246094 286.484375 C 67.730469 287.742188 66.28125 289.074219 64.894531 290.476562 C 63.507812 291.875 62.195312 293.339844 60.953125 294.871094 C 59.710938 296.398438 58.546875 297.984375 57.457031 299.628906 C 56.371094 301.273438 55.363281 302.964844 54.441406 304.703125 C 53.519531 306.445312 52.683594 308.226562 51.933594 310.050781 C 51.183594 311.871094 50.527344 313.726562 49.957031 315.613281 C 49.390625 317.5 48.917969 319.410156 48.535156 321.34375 C 48.152344 323.277344 47.867188 325.222656 47.675781 327.183594 C 47.484375 329.144531 47.386719 331.113281 47.386719 333.082031 L 47.386719 596.175781 C 47.386719 598.160156 47.484375 600.140625 47.679688 602.113281 C 47.875 604.089844 48.164062 606.050781 48.550781 607.996094 C 48.9375 609.941406 49.421875 611.867188 49.996094 613.765625 C 50.574219 615.664062 51.238281 617.53125 52 619.363281 C 52.757812 621.195312 53.605469 622.988281 54.542969 624.738281 C 55.476562 626.488281 56.496094 628.1875 57.597656 629.839844 C 58.699219 631.488281 59.882812 633.078125 61.140625 634.613281 C 62.398438 636.148438 63.730469 637.617188 65.132812 639.019531 C 66.535156 640.421875 68.003906 641.753906 69.539062 643.011719 C 71.074219 644.273438 72.664062 645.453125 74.316406 646.554688 C 75.964844 647.65625 77.664062 648.675781 79.414062 649.613281 C 81.164062 650.546875 82.957031 651.394531 84.789062 652.152344 C 86.625 652.914062 88.488281 653.582031 90.390625 654.15625 C 92.289062 654.734375 94.210938 655.214844 96.15625 655.601562 C 98.101562 655.988281 100.0625 656.28125 102.039062 656.472656 C 104.011719 656.667969 105.992188 656.765625 107.976562 656.765625 L 660.015625 656.765625 C 662 656.765625 663.980469 656.667969 665.957031 656.472656 C 667.929688 656.28125 669.890625 655.988281 671.835938 655.601562 C 673.78125 655.214844 675.707031 654.734375 677.605469 654.15625 C 679.503906 653.582031 681.371094 652.914062 683.203125 652.152344 C 685.035156 651.394531 686.828125 650.546875 688.578125 649.613281 C 690.328125 648.675781 692.027344 647.65625 693.679688 646.554688 C 695.328125 645.453125 696.921875 644.273438 698.453125 643.011719 C 699.988281 641.753906 701.457031 640.421875 702.859375 639.019531 C 704.261719 637.617188 705.59375 636.148438 706.851562 634.613281 C 708.113281 633.078125 709.292969 631.488281 710.394531 629.839844 C 711.496094 628.1875 712.515625 626.488281 713.453125 624.738281 C 714.386719 622.988281 715.234375 621.195312 715.992188 619.363281 C 716.753906 617.53125 717.421875 615.664062 717.996094 613.765625 C 718.574219 611.867188 719.054688 609.941406 719.441406 607.996094 C 719.828125 606.050781 720.121094 604.089844 720.3125 602.113281 C 720.507812 600.140625 720.605469 598.160156 720.605469 596.175781 L 720.605469 332.746094 C 720.59375 330.769531 720.488281 328.796875 720.285156 326.828125 C 720.078125 324.863281 719.78125 322.910156 719.382812 320.972656 C 718.988281 319.035156 718.5 317.121094 717.917969 315.234375 C 717.335938 313.34375 716.664062 311.484375 715.898438 309.664062 C 715.132812 307.839844 714.28125 306.058594 713.34375 304.316406 C 712.40625 302.578125 711.382812 300.886719 710.277344 299.246094 C 709.175781 297.605469 707.992188 296.023438 706.734375 294.5 C 705.472656 292.972656 704.144531 291.515625 702.742188 290.121094 C 701.339844 288.726562 699.871094 287.402344 698.339844 286.152344 C 696.808594 284.902344 695.21875 283.730469 693.574219 282.632812 C 691.925781 281.539062 690.230469 280.527344 688.484375 279.597656 C 686.742188 278.667969 684.953125 277.828125 683.125 277.074219 C 681.296875 276.320312 679.4375 275.65625 677.542969 275.082031 C 675.652344 274.511719 673.734375 274.03125 671.796875 273.648438 C 669.855469 273.265625 667.902344 272.976562 665.933594 272.78125 C 663.964844 272.589844 661.992188 272.492188 660.015625 272.492188 Z M 383.996094 609.101562 C 381.300781 609.101562 378.609375 609.039062 375.917969 608.90625 C 373.226562 608.777344 370.542969 608.578125 367.859375 608.316406 C 365.179688 608.054688 362.507812 607.722656 359.839844 607.328125 C 357.175781 606.9375 354.523438 606.476562 351.878906 605.953125 C 349.238281 605.425781 346.609375 604.839844 343.996094 604.183594 C 341.382812 603.53125 338.785156 602.8125 336.207031 602.03125 C 333.628906 601.25 331.070312 600.40625 328.535156 599.5 C 326 598.59375 323.484375 597.625 320.996094 596.597656 C 318.507812 595.566406 316.042969 594.476562 313.609375 593.324219 C 311.171875 592.171875 308.765625 590.964844 306.390625 589.695312 C 304.011719 588.425781 301.667969 587.097656 299.359375 585.714844 C 297.046875 584.332031 294.769531 582.890625 292.53125 581.394531 C 290.289062 579.898438 288.085938 578.347656 285.921875 576.742188 C 283.757812 575.140625 281.632812 573.484375 279.550781 571.777344 C 277.46875 570.066406 275.429688 568.308594 273.429688 566.5 C 271.433594 564.691406 269.484375 562.835938 267.578125 560.929688 C 265.671875 559.027344 263.8125 557.078125 262.003906 555.082031 C 260.195312 553.085938 258.433594 551.046875 256.726562 548.964844 C 255.015625 546.882812 253.359375 544.761719 251.75 542.597656 C 250.144531 540.433594 248.59375 538.230469 247.097656 535.992188 C 245.601562 533.753906 244.160156 531.476562 242.773438 529.167969 C 241.386719 526.855469 240.058594 524.515625 238.789062 522.136719 C 237.515625 519.761719 236.304688 517.359375 235.152344 514.921875 C 234 512.488281 232.90625 510.027344 231.875 507.535156 C 230.84375 505.046875 229.875 502.535156 228.964844 500 C 228.058594 497.464844 227.210938 494.90625 226.429688 492.328125 C 225.644531 489.75 224.925781 487.15625 224.273438 484.542969 C 223.617188 481.929688 223.027344 479.300781 222.5 476.660156 C 221.972656 474.015625 221.511719 471.363281 221.117188 468.699219 C 220.71875 466.035156 220.390625 463.359375 220.125 460.679688 C 219.859375 458 219.660156 455.3125 219.527344 452.621094 C 219.394531 449.929688 219.328125 447.238281 219.328125 444.542969 C 219.328125 441.851562 219.390625 439.160156 219.523438 436.46875 C 219.65625 433.777344 219.851562 431.089844 220.117188 428.410156 C 220.378906 425.726562 220.707031 423.054688 221.101562 420.390625 C 221.496094 417.726562 221.957031 415.070312 222.480469 412.429688 C 223.007812 409.785156 223.597656 407.160156 224.25 404.546875 C 224.902344 401.929688 225.621094 399.335938 226.402344 396.757812 C 227.183594 394.179688 228.027344 391.621094 228.9375 389.085938 C 229.84375 386.546875 230.8125 384.035156 231.84375 381.546875 C 232.871094 379.054688 233.964844 376.59375 235.113281 374.160156 C 236.265625 371.722656 237.476562 369.316406 238.746094 366.941406 C 240.015625 364.5625 241.34375 362.21875 242.726562 359.910156 C 244.109375 357.597656 245.550781 355.324219 247.046875 353.082031 C 248.542969 350.84375 250.09375 348.640625 251.699219 346.476562 C 253.304688 344.3125 254.960938 342.1875 256.667969 340.105469 C 258.375 338.023438 260.136719 335.980469 261.945312 333.984375 C 263.753906 331.988281 265.609375 330.039062 267.515625 328.132812 C 269.417969 326.226562 271.367188 324.371094 273.363281 322.558594 C 275.359375 320.75 277.398438 318.992188 279.480469 317.28125 C 281.5625 315.570312 283.6875 313.914062 285.851562 312.308594 C 288.015625 310.703125 290.214844 309.152344 292.457031 307.65625 C 294.695312 306.160156 296.96875 304.71875 299.28125 303.332031 C 301.589844 301.945312 303.933594 300.617188 306.308594 299.347656 C 308.6875 298.078125 311.089844 296.867188 313.527344 295.714844 C 315.960938 294.5625 318.425781 293.46875 320.914062 292.4375 C 323.402344 291.40625 325.914062 290.4375 328.449219 289.527344 C 330.988281 288.621094 333.542969 287.777344 336.121094 286.992188 C 338.699219 286.210938 341.296875 285.492188 343.910156 284.835938 C 346.523438 284.183594 349.148438 283.589844 351.792969 283.066406 C 354.433594 282.539062 357.089844 282.078125 359.753906 281.683594 C 362.417969 281.289062 365.089844 280.957031 367.773438 280.691406 C 370.453125 280.429688 373.140625 280.230469 375.828125 280.097656 C 378.519531 279.964844 381.210938 279.898438 383.90625 279.898438 C 386.601562 279.898438 389.292969 279.964844 391.984375 280.09375 C 394.675781 280.226562 397.359375 280.425781 400.042969 280.6875 C 402.722656 280.953125 405.394531 281.28125 408.0625 281.675781 C 410.726562 282.070312 413.378906 282.53125 416.023438 283.058594 C 418.664062 283.582031 421.292969 284.171875 423.90625 284.828125 C 426.519531 285.480469 429.113281 286.199219 431.691406 286.980469 C 434.269531 287.761719 436.828125 288.605469 439.367188 289.515625 C 441.902344 290.421875 444.414062 291.390625 446.902344 292.421875 C 449.394531 293.453125 451.855469 294.542969 454.292969 295.695312 C 456.726562 296.847656 459.132812 298.058594 461.507812 299.328125 C 463.882812 300.597656 466.226562 301.921875 468.539062 303.308594 C 470.851562 304.695312 473.125 306.132812 475.367188 307.628906 C 477.605469 309.128906 479.808594 310.679688 481.972656 312.28125 C 484.136719 313.886719 486.257812 315.542969 488.34375 317.253906 C 490.425781 318.960938 492.464844 320.722656 494.460938 322.53125 C 496.457031 324.339844 498.40625 326.195312 500.3125 328.101562 C 502.21875 330.003906 504.074219 331.957031 505.882812 333.953125 C 507.695312 335.949219 509.453125 337.988281 511.164062 340.070312 C 512.871094 342.152344 514.527344 344.277344 516.132812 346.4375 C 517.738281 348.601562 519.289062 350.804688 520.785156 353.046875 C 522.28125 355.285156 523.722656 357.558594 525.109375 359.871094 C 526.496094 362.183594 527.820312 364.523438 529.09375 366.902344 C 530.363281 369.277344 531.574219 371.683594 532.726562 374.117188 C 533.878906 376.554688 534.96875 379.015625 536 381.503906 C 537.03125 383.992188 538 386.507812 538.90625 389.042969 C 539.816406 391.578125 540.660156 394.136719 541.441406 396.714844 C 542.222656 399.292969 542.941406 401.886719 543.597656 404.5 C 544.253906 407.113281 544.84375 409.742188 545.367188 412.386719 C 545.894531 415.027344 546.355469 417.679688 546.75 420.347656 C 547.144531 423.011719 547.472656 425.683594 547.738281 428.363281 C 548.003906 431.046875 548.199219 433.730469 548.332031 436.421875 C 548.464844 439.113281 548.53125 441.804688 548.53125 444.5 C 548.53125 447.191406 548.464844 449.882812 548.332031 452.574219 C 548.199219 455.265625 548.003906 457.949219 547.738281 460.628906 C 547.476562 463.308594 547.144531 465.980469 546.75 468.644531 C 546.355469 471.308594 545.894531 473.960938 545.371094 476.605469 C 544.84375 479.246094 544.253906 481.871094 543.601562 484.484375 C 542.945312 487.097656 542.230469 489.691406 541.445312 492.269531 C 540.664062 494.847656 539.820312 497.402344 538.914062 499.9375 C 538.007812 502.476562 537.039062 504.988281 536.007812 507.476562 C 534.976562 509.964844 533.886719 512.425781 532.734375 514.859375 C 531.585938 517.292969 530.375 519.699219 529.105469 522.074219 C 527.835938 524.449219 526.507812 526.792969 525.125 529.101562 C 523.742188 531.414062 522.300781 533.6875 520.804688 535.925781 C 519.308594 538.167969 517.757812 540.367188 516.15625 542.53125 C 514.550781 544.695312 512.894531 546.816406 511.1875 548.898438 C 509.480469 550.980469 507.722656 553.019531 505.914062 555.015625 C 504.105469 557.011719 502.25 558.960938 500.34375 560.867188 C 498.441406 562.773438 496.492188 564.628906 494.496094 566.4375 C 492.5 568.246094 490.460938 570.007812 488.382812 571.714844 C 486.300781 573.425781 484.175781 575.082031 482.015625 576.6875 C 479.851562 578.289062 477.652344 579.839844 475.414062 581.339844 C 473.171875 582.835938 470.898438 584.277344 468.589844 585.660156 C 466.28125 587.046875 463.9375 588.375 461.5625 589.644531 C 459.1875 590.914062 456.785156 592.125 454.347656 593.277344 C 451.914062 594.429688 449.453125 595.523438 446.964844 596.554688 C 444.480469 597.585938 441.96875 598.554688 439.429688 599.460938 C 436.894531 600.371094 434.339844 601.214844 431.761719 602 C 429.1875 602.78125 426.589844 603.5 423.980469 604.15625 C 421.367188 604.808594 418.742188 605.402344 416.097656 605.925781 C 413.457031 606.453125 410.804688 606.914062 408.140625 607.3125 C 405.476562 607.707031 402.804688 608.039062 400.125 608.304688 C 397.445312 608.566406 394.761719 608.765625 392.070312 608.902344 C 389.382812 609.035156 386.691406 609.101562 383.996094 609.101562 Z M 658.265625 367.214844 C 657.367188 367.214844 656.46875 367.175781 655.570312 367.089844 C 654.675781 367.003906 653.785156 366.871094 652.902344 366.699219 C 652.015625 366.523438 651.144531 366.308594 650.28125 366.046875 C 649.417969 365.789062 648.570312 365.488281 647.738281 365.144531 C 646.90625 364.800781 646.09375 364.417969 645.296875 363.996094 C 644.503906 363.574219 643.730469 363.113281 642.980469 362.613281 C 642.230469 362.113281 641.507812 361.578125 640.808594 361.011719 C 640.113281 360.441406 639.445312 359.835938 638.808594 359.203125 C 638.171875 358.566406 637.566406 357.898438 636.992188 357.203125 C 636.421875 356.507812 635.882812 355.789062 635.382812 355.039062 C 634.882812 354.292969 634.417969 353.519531 633.992188 352.726562 C 633.566406 351.933594 633.179688 351.121094 632.835938 350.289062 C 632.488281 349.457031 632.183594 348.613281 631.921875 347.75 C 631.660156 346.886719 631.441406 346.015625 631.265625 345.132812 C 631.089844 344.25 630.957031 343.359375 630.867188 342.464844 C 630.777344 341.570312 630.730469 340.671875 630.730469 339.769531 C 630.730469 338.867188 630.773438 337.96875 630.863281 337.074219 C 630.949219 336.179688 631.082031 335.289062 631.257812 334.40625 C 631.429688 333.523438 631.648438 332.648438 631.910156 331.789062 C 632.171875 330.925781 632.472656 330.078125 632.816406 329.246094 C 633.164062 328.414062 633.546875 327.601562 633.972656 326.804688 C 634.394531 326.011719 634.855469 325.242188 635.355469 324.492188 C 635.859375 323.742188 636.394531 323.019531 636.964844 322.324219 C 637.535156 321.628906 638.140625 320.960938 638.777344 320.324219 C 639.414062 319.6875 640.078125 319.085938 640.777344 318.511719 C 641.472656 317.941406 642.195312 317.40625 642.941406 316.90625 C 643.691406 316.40625 644.464844 315.945312 645.257812 315.519531 C 646.050781 315.09375 646.867188 314.710938 647.699219 314.367188 C 648.53125 314.023438 649.375 313.71875 650.238281 313.457031 C 651.101562 313.199219 651.972656 312.980469 652.855469 312.804688 C 653.738281 312.628906 654.628906 312.496094 655.527344 312.410156 C 656.421875 312.324219 657.320312 312.277344 658.222656 312.28125 C 659.121094 312.28125 660.019531 312.324219 660.917969 312.414062 C 661.8125 312.503906 662.703125 312.636719 663.585938 312.8125 C 664.46875 312.988281 665.339844 313.210938 666.203125 313.472656 C 667.0625 313.734375 667.910156 314.039062 668.742188 314.382812 C 669.574219 314.730469 670.386719 315.113281 671.179688 315.539062 C 671.972656 315.964844 672.742188 316.429688 673.492188 316.929688 C 674.238281 317.433594 674.960938 317.96875 675.65625 318.542969 C 676.351562 319.113281 677.015625 319.71875 677.652344 320.355469 C 678.289062 320.996094 678.890625 321.660156 679.460938 322.359375 C 680.03125 323.054688 680.566406 323.78125 681.066406 324.527344 C 681.5625 325.277344 682.023438 326.050781 682.449219 326.847656 C 682.871094 327.640625 683.253906 328.453125 683.597656 329.289062 C 683.9375 330.121094 684.242188 330.96875 684.5 331.832031 C 684.757812 332.691406 684.976562 333.566406 685.148438 334.449219 C 685.324219 335.332031 685.453125 336.222656 685.539062 337.117188 C 685.625 338.015625 685.667969 338.914062 685.664062 339.8125 C 685.664062 340.710938 685.621094 341.605469 685.535156 342.5 C 685.445312 343.394531 685.316406 344.28125 685.140625 345.160156 C 684.964844 346.039062 684.746094 346.910156 684.484375 347.769531 C 684.226562 348.628906 683.921875 349.472656 683.582031 350.300781 C 683.238281 351.128906 682.851562 351.9375 682.429688 352.730469 C 682.007812 353.523438 681.546875 354.289062 681.046875 355.035156 C 680.550781 355.78125 680.015625 356.503906 679.445312 357.195312 C 678.878906 357.890625 678.273438 358.554688 677.640625 359.1875 C 677.007812 359.824219 676.34375 360.425781 675.648438 360.996094 C 674.953125 361.5625 674.234375 362.097656 673.488281 362.597656 C 672.742188 363.09375 671.972656 363.554688 671.183594 363.980469 C 670.390625 364.402344 669.582031 364.785156 668.75 365.128906 C 667.921875 365.472656 667.078125 365.773438 666.21875 366.035156 C 665.359375 366.296875 664.492188 366.511719 663.613281 366.6875 C 662.730469 366.863281 661.84375 366.996094 660.953125 367.082031 C 660.058594 367.171875 659.164062 367.214844 658.265625 367.214844 Z M 658.265625 367.214844 " fill-opacity="1" fill-rule="nonzero"/></g><path fill="#ffffff" d="M 498.714844 444.5 C 498.714844 446.378906 498.667969 448.253906 498.574219 450.128906 C 498.484375 452.003906 498.34375 453.875 498.160156 455.742188 C 497.976562 457.613281 497.746094 459.476562 497.472656 461.332031 C 497.195312 463.1875 496.875 465.039062 496.507812 466.878906 C 496.140625 468.722656 495.730469 470.550781 495.273438 472.375 C 494.820312 474.195312 494.320312 476.003906 493.773438 477.800781 C 493.226562 479.597656 492.640625 481.378906 492.007812 483.148438 C 491.375 484.914062 490.699219 486.664062 489.980469 488.398438 C 489.261719 490.132812 488.5 491.851562 487.699219 493.546875 C 486.894531 495.246094 486.050781 496.921875 485.167969 498.578125 C 484.28125 500.234375 483.355469 501.867188 482.390625 503.476562 C 481.425781 505.085938 480.421875 506.671875 479.378906 508.234375 C 478.335938 509.792969 477.257812 511.328125 476.136719 512.835938 C 475.019531 514.34375 473.863281 515.824219 472.671875 517.273438 C 471.484375 518.726562 470.257812 520.148438 468.996094 521.539062 C 467.734375 522.929688 466.441406 524.289062 465.113281 525.617188 C 463.785156 526.945312 462.425781 528.238281 461.035156 529.5 C 459.644531 530.761719 458.222656 531.984375 456.773438 533.175781 C 455.320312 534.367188 453.839844 535.523438 452.332031 536.640625 C 450.824219 537.757812 449.289062 538.839844 447.730469 539.882812 C 446.167969 540.925781 444.582031 541.929688 442.972656 542.894531 C 441.363281 543.859375 439.730469 544.785156 438.074219 545.671875 C 436.417969 546.554688 434.742188 547.398438 433.042969 548.203125 C 431.347656 549.003906 429.632812 549.765625 427.898438 550.484375 C 426.164062 551.203125 424.410156 551.878906 422.644531 552.511719 C 420.875 553.144531 419.09375 553.730469 417.296875 554.277344 C 415.5 554.820312 413.691406 555.324219 411.871094 555.777344 C 410.050781 556.234375 408.21875 556.644531 406.375 557.011719 C 404.535156 557.378906 402.6875 557.699219 400.828125 557.976562 C 398.972656 558.25 397.109375 558.480469 395.242188 558.664062 C 393.371094 558.847656 391.5 558.984375 389.625 559.078125 C 387.75 559.171875 385.875 559.214844 383.996094 559.214844 C 382.121094 559.214844 380.242188 559.171875 378.367188 559.078125 C 376.492188 558.984375 374.621094 558.847656 372.753906 558.664062 C 370.882812 558.480469 369.019531 558.25 367.164062 557.976562 C 365.308594 557.699219 363.457031 557.378906 361.617188 557.011719 C 359.773438 556.644531 357.945312 556.234375 356.121094 555.777344 C 354.300781 555.324219 352.492188 554.820312 350.695312 554.277344 C 348.898438 553.730469 347.117188 553.144531 345.351562 552.511719 C 343.582031 551.878906 341.832031 551.203125 340.097656 550.484375 C 338.363281 549.765625 336.644531 549.003906 334.949219 548.203125 C 333.25 547.398438 331.574219 546.554688 329.917969 545.671875 C 328.265625 544.785156 326.628906 543.859375 325.019531 542.894531 C 323.410156 541.929688 321.824219 540.925781 320.261719 539.882812 C 318.703125 538.839844 317.167969 537.757812 315.660156 536.640625 C 314.152344 535.523438 312.671875 534.367188 311.222656 533.175781 C 309.769531 531.984375 308.347656 530.761719 306.957031 529.5 C 305.566406 528.238281 304.207031 526.945312 302.878906 525.617188 C 301.550781 524.289062 300.257812 522.929688 298.996094 521.539062 C 297.738281 520.148438 296.511719 518.726562 295.320312 517.273438 C 294.128906 515.824219 292.972656 514.34375 291.855469 512.835938 C 290.738281 511.328125 289.65625 509.792969 288.613281 508.234375 C 287.570312 506.671875 286.566406 505.085938 285.601562 503.476562 C 284.636719 501.867188 283.710938 500.234375 282.824219 498.578125 C 281.941406 496.921875 281.097656 495.246094 280.292969 493.546875 C 279.492188 491.851562 278.730469 490.132812 278.011719 488.398438 C 277.292969 486.664062 276.617188 484.914062 275.984375 483.148438 C 275.351562 481.378906 274.765625 479.597656 274.21875 477.800781 C 273.675781 476.003906 273.175781 474.195312 272.71875 472.375 C 272.261719 470.550781 271.851562 468.722656 271.484375 466.878906 C 271.117188 465.039062 270.796875 463.1875 270.523438 461.332031 C 270.246094 459.476562 270.015625 457.613281 269.832031 455.742188 C 269.648438 453.875 269.511719 452.003906 269.417969 450.128906 C 269.328125 448.253906 269.28125 446.378906 269.28125 444.5 C 269.28125 442.621094 269.328125 440.746094 269.417969 438.871094 C 269.511719 436.996094 269.648438 435.125 269.832031 433.253906 C 270.015625 431.386719 270.246094 429.523438 270.523438 427.667969 C 270.796875 425.808594 271.117188 423.960938 271.484375 422.121094 C 271.851562 420.277344 272.261719 418.445312 272.71875 416.625 C 273.175781 414.804688 273.675781 412.996094 274.21875 411.199219 C 274.765625 409.402344 275.355469 407.621094 275.984375 405.851562 C 276.617188 404.085938 277.292969 402.335938 278.011719 400.601562 C 278.730469 398.867188 279.492188 397.148438 280.292969 395.453125 C 281.097656 393.753906 281.941406 392.078125 282.824219 390.421875 C 283.710938 388.765625 284.636719 387.132812 285.601562 385.523438 C 286.566406 383.914062 287.570312 382.328125 288.613281 380.765625 C 289.65625 379.207031 290.738281 377.671875 291.855469 376.164062 C 292.972656 374.65625 294.128906 373.175781 295.320312 371.722656 C 296.511719 370.273438 297.738281 368.851562 298.996094 367.460938 C 300.257812 366.070312 301.550781 364.710938 302.878906 363.382812 C 304.207031 362.054688 305.566406 360.761719 306.957031 359.5 C 308.347656 358.238281 309.769531 357.015625 311.222656 355.824219 C 312.671875 354.632812 314.152344 353.476562 315.660156 352.359375 C 317.167969 351.242188 318.703125 350.160156 320.261719 349.117188 C 321.824219 348.074219 323.410156 347.070312 325.019531 346.105469 C 326.628906 345.140625 328.265625 344.214844 329.917969 343.328125 C 331.574219 342.445312 333.25 341.601562 334.949219 340.796875 C 336.644531 339.996094 338.363281 339.234375 340.097656 338.515625 C 341.832031 337.796875 343.582031 337.121094 345.351562 336.488281 C 347.117188 335.855469 348.898438 335.269531 350.695312 334.722656 C 352.492188 334.179688 354.300781 333.675781 356.121094 333.222656 C 357.945312 332.765625 359.773438 332.355469 361.617188 331.988281 C 363.457031 331.621094 365.308594 331.300781 367.164062 331.023438 C 369.019531 330.75 370.882812 330.519531 372.753906 330.335938 C 374.621094 330.152344 376.492188 330.015625 378.367188 329.921875 C 380.242188 329.828125 382.121094 329.785156 383.996094 329.785156 C 385.875 329.785156 387.75 329.828125 389.625 329.921875 C 391.5 330.015625 393.371094 330.152344 395.242188 330.335938 C 397.109375 330.519531 398.972656 330.75 400.828125 331.023438 C 402.6875 331.300781 404.535156 331.621094 406.375 331.988281 C 408.21875 332.355469 410.050781 332.765625 411.871094 333.222656 C 413.691406 333.675781 415.5 334.179688 417.296875 334.722656 C 419.09375 335.269531 420.875 335.855469 422.644531 336.488281 C 424.410156 337.121094 426.164062 337.796875 427.898438 338.515625 C 429.632812 339.234375 431.347656 339.996094 433.042969 340.796875 C 434.742188 341.601562 436.417969 342.445312 438.074219 343.328125 C 439.730469 344.214844 441.363281 345.140625 442.972656 346.105469 C 444.582031 347.070312 446.167969 348.074219 447.730469 349.117188 C 449.289062 350.160156 450.824219 351.242188 452.332031 352.359375 C 453.839844 353.476562 455.320312 354.632812 456.773438 355.824219 C 458.222656 357.015625 459.644531 358.238281 461.035156 359.5 C 462.425781 360.761719 463.785156 362.054688 465.113281 363.382812 C 466.441406 364.710938 467.734375 366.070312 468.996094 367.460938 C 470.257812 368.851562 471.484375 370.273438 472.671875 371.722656 C 473.863281 373.175781 475.019531 374.65625 476.136719 376.164062 C 477.257812 377.671875 478.335938 379.207031 479.378906 380.765625 C 480.421875 382.328125 481.425781 383.914062 482.390625 385.523438 C 483.355469 387.132812 484.28125 388.765625 485.167969 390.421875 C 486.050781 392.078125 486.894531 393.753906 487.699219 395.453125 C 488.5 397.148438 489.261719 398.867188 489.980469 400.601562 C 490.699219 402.335938 491.375 404.085938 492.007812 405.851562 C 492.640625 407.621094 493.226562 409.402344 493.773438 411.199219 C 494.320312 412.996094 494.820312 414.804688 495.273438 416.625 C 495.730469 418.445312 496.140625 420.277344 496.507812 422.121094 C 496.875 423.960938 497.195312 425.808594 497.472656 427.667969 C 497.746094 429.523438 497.976562 431.386719 498.160156 433.253906 C 498.34375 435.125 498.484375 436.996094 498.574219 438.871094 C 498.667969 440.746094 498.714844 442.621094 498.714844 444.5 Z M 498.714844 444.5 " fill-opacity="1" fill-rule="nonzero"/></svg>